<svg xmlns="http://www.w3.org/2000/svg" width="18" height="18" viewBox="0 0 48 48" role="img" aria-label="Google">
  <path fill="#FFC107" d="M43.611 20.083H42V20H24v8h11.303C33.676 32.657 29.267 36 24 36 16.82 36 11 30.18 11 23S16.82 10 24 10c3.222 0 6.154 1.215 8.393 3.207l5.657-5.657C34.932 4.027 29.732 2 24 2 11.85 2 2 11.85 2 24s9.85 22 22 22c11.315 0 21-8.21 21-22 0-1.34-.138-2.64-.389-3.917z"/>
  <path fill="#FF3D00" d="M6.306 14.691l6.571 4.819C14.327 16.392 18.79 14 24 14c3.222 0 6.154 1.215 8.393 3.207l5.657-5.657C34.932 4.027 29.732 2 24 2 15.317 2 7.859 6.99 4.306 14.691z"/>
  <path fill="#4CAF50" d="M24 46c5.19 0 9.93-1.98 13.51-5.203l-6.234-5.27C29.12 36.678 26.68 37.5 24 37.5c-5.235 0-9.626-3.318-11.29-7.946l-6.543 5.038C9.675 41.083 16.318 46 24 46z"/>
  <path fill="#1976D2" d="M43.611 20.083H42V20H24v8h11.303A12.01 12.01 0 0 1 24 36c-5.235 0-9.626-3.318-11.29-7.946l-6.543 5.038C9.675 41.083 16.318 46 24 46c11.315 0 21-8.21 21-22 0-1.34-.138-2.64-.389-3.917z"/>
</svg>
